<svg width="315" height="38" viewBox="0 0 315 38" fill="none" xmlns="http://www.w3.org/2000/svg">
<g filter="url(#filter0_d_105_4)">
<path d="M5.87 25.992L6.968 18.828H2.648L3.116 16.236H7.346L8.264 10.08H4.196L4.592 7.542H8.66L9.686 0.792003H12.44L11.432 7.542H16.4L17.462 0.792003H20.198L19.172 7.542H23.51L23.114 10.08H18.794L17.822 16.236H21.962L21.566 18.828H17.444L16.364 25.992H13.61L14.69 18.828H9.722L8.624 25.992H5.87ZM10.1 16.236H15.068L16.022 10.08H11.054L10.1 16.236ZM48.2032 25.992V7.596H51.0832V10.998L50.6512 10.71C50.9872 9.582 51.4612 8.712 52.0732 8.1C52.6852 7.476 53.4772 7.164 54.4492 7.164C55.4932 7.164 56.3092 7.464 56.8972 8.064C57.4852 8.652 57.8872 9.294 58.1032 9.99C58.5232 9.222 59.0692 8.562 59.7412 8.01C60.4252 7.446 61.2592 7.164 62.2432 7.164C63.7672 7.164 64.8952 7.662 65.6272 8.658C66.3592 9.654 66.7252 11.256 66.7252 13.464V25.992H63.8272V14.724C63.8272 13.104 63.6892 11.898 63.4132 11.106C63.1492 10.302 62.5552 9.9 61.6312 9.9C60.9832 9.9 60.4612 10.128 60.0652 10.584C59.6692 11.028 59.3812 11.634 59.2012 12.402C59.0212 13.158 58.9312 13.998 58.9312 14.922V25.992H56.0332V14.346C56.0332 13.566 55.9852 12.84 55.8892 12.168C55.7932 11.484 55.5952 10.938 55.2952 10.53C54.9952 10.11 54.5392 9.9 53.9272 9.9C53.2912 9.9 52.7632 10.128 52.3432 10.584C51.9232 11.028 51.6052 11.634 51.3892 12.402C51.1852 13.158 51.0832 13.998 51.0832 14.922V25.992H48.2032ZM78.4328 26.424C77.1488 26.424 76.0088 26.196 75.0128 25.74C74.0288 25.272 73.2548 24.582 72.6908 23.67C72.1388 22.746 71.8628 21.594 71.8628 20.214C71.8628 18.798 72.1988 17.646 72.8708 16.758C73.5428 15.858 74.4128 15.198 75.4808 14.778C76.5488 14.346 77.6828 14.13 78.8828 14.13C79.7828 14.13 80.6348 14.22 81.4388 14.4C82.2548 14.58 83.0828 14.898 83.9228 15.354V13.914C83.9228 12.786 83.7428 11.922 83.3828 11.322C83.0228 10.71 82.5428 10.29 81.9428 10.062C81.3428 9.834 80.6888 9.72 79.9808 9.72C78.9968 9.72 77.9708 9.924 76.9028 10.332C75.8468 10.728 74.9288 11.172 74.1488 11.664L73.3028 9.198C74.1068 8.706 75.1208 8.244 76.3448 7.812C77.5808 7.38 78.8888 7.164 80.2688 7.164C80.9648 7.164 81.6848 7.254 82.4288 7.434C83.1728 7.602 83.8688 7.92 84.5168 8.388C85.1648 8.856 85.6868 9.516 86.0828 10.368C86.4788 11.208 86.6768 12.306 86.6768 13.662V25.992H83.9228V24.282C83.2388 24.894 82.4348 25.404 81.5108 25.812C80.5988 26.22 79.5728 26.424 78.4328 26.424ZM78.8108 23.868C79.9748 23.868 80.9828 23.598 81.8348 23.058C82.6868 22.506 83.3828 21.912 83.9228 21.276V18C83.3468 17.64 82.6388 17.328 81.7988 17.064C80.9588 16.8 80.1068 16.668 79.2428 16.668C78.0068 16.668 76.9268 16.956 76.0028 17.532C75.0788 18.096 74.6168 18.99 74.6168 20.214C74.6168 21.306 74.9768 22.188 75.6968 22.86C76.4288 23.532 77.4668 23.868 78.8108 23.868ZM92.5704 25.992V23.382H96.4044V10.206H92.5704V7.596H99.2304V11.718L99.0144 11.196C99.3984 10.368 99.9804 9.654 100.76 9.054C101.552 8.454 102.434 7.992 103.406 7.668C104.39 7.332 105.368 7.164 106.34 7.164C107.276 7.164 108.074 7.248 108.734 7.416C109.394 7.584 109.922 7.788 110.318 8.028V14.346H107.384V8.892L108.284 10.296C107.984 10.212 107.66 10.152 107.312 10.116C106.976 10.08 106.622 10.062 106.25 10.062C105.038 10.062 103.91 10.266 102.866 10.674C101.822 11.07 100.982 11.658 100.346 12.438C99.7224 13.218 99.4104 14.172 99.4104 15.3V23.382H104.828V25.992H92.5704ZM116.68 25.992V1.404L119.614 2.14577e-06V25.992H116.68ZM119.434 18.288V14.904L126.364 7.596H129.784L119.434 18.288ZM128.704 25.992L122.71 14.202L124.798 12.078L131.926 25.992H128.704ZM145.632 26.424C144 26.424 142.59 26.034 141.402 25.254C140.214 24.462 139.302 23.346 138.666 21.906C138.03 20.466 137.712 18.756 137.712 16.776C137.712 14.76 138.036 13.038 138.684 11.61C139.332 10.17 140.244 9.072 141.42 8.316C142.608 7.548 144 7.164 145.596 7.164C146.796 7.164 147.798 7.338 148.602 7.686C149.406 8.034 150.072 8.436 150.6 8.892V1.422L153.534 2.14577e-06V25.992H150.6V24.444C150.108 24.972 149.46 25.434 148.656 25.83C147.864 26.226 146.856 26.424 145.632 26.424ZM145.992 23.724C147.012 23.724 147.912 23.502 148.692 23.058C149.484 22.602 150.12 21.954 150.6 21.114V12.294C150.252 11.73 149.706 11.184 148.962 10.656C148.218 10.116 147.222 9.846 145.974 9.846C144.282 9.846 142.986 10.446 142.086 11.646C141.186 12.834 140.736 14.544 140.736 16.776C140.736 18.084 140.946 19.266 141.366 20.322C141.786 21.366 142.386 22.194 143.166 22.806C143.958 23.418 144.9 23.724 145.992 23.724ZM168.373 26.424C166.657 26.424 165.157 26.046 163.873 25.29C162.589 24.534 161.587 23.442 160.867 22.014C160.159 20.574 159.805 18.84 159.805 16.812C159.805 14.808 160.159 13.086 160.867 11.646C161.587 10.206 162.589 9.102 163.873 8.334C165.157 7.554 166.657 7.164 168.373 7.164C170.101 7.164 171.607 7.542 172.891 8.298C174.187 9.054 175.189 10.152 175.897 11.592C176.605 13.032 176.959 14.76 176.959 16.776C176.959 18.78 176.605 20.502 175.897 21.942C175.189 23.382 174.187 24.492 172.891 25.272C171.607 26.04 170.101 26.424 168.373 26.424ZM168.373 23.724C170.149 23.724 171.517 23.106 172.477 21.87C173.449 20.634 173.935 18.936 173.935 16.776C173.935 14.628 173.467 12.936 172.531 11.7C171.595 10.464 170.209 9.846 168.373 9.846C166.561 9.846 165.181 10.452 164.233 11.664C163.285 12.864 162.811 14.58 162.811 16.812C162.811 18.948 163.285 20.634 164.233 21.87C165.181 23.106 166.561 23.724 168.373 23.724ZM184.995 25.992L180.423 7.596H183.303L186.129 19.836C186.177 20.04 186.225 20.274 186.273 20.538C186.321 20.79 186.363 21.048 186.399 21.312C186.459 20.988 186.507 20.712 186.543 20.484C186.591 20.244 186.645 19.998 186.705 19.746L189.387 7.596H191.745L194.445 19.782C194.505 20.022 194.565 20.286 194.625 20.574C194.685 20.85 194.739 21.144 194.787 21.456C194.823 21.156 194.865 20.874 194.913 20.61C194.973 20.334 195.033 20.058 195.093 19.782L197.811 7.596H200.709L196.119 25.992H193.563L190.899 14.292C190.851 14.052 190.791 13.764 190.719 13.428C190.659 13.092 190.599 12.762 190.539 12.438C190.479 12.786 190.413 13.122 190.341 13.446C190.281 13.758 190.227 14.022 190.179 14.238L187.587 25.992H184.995ZM205.378 25.992V7.596H208.312V11.034L207.844 10.404C208.132 9.732 208.54 9.156 209.068 8.676C209.596 8.196 210.22 7.824 210.94 7.56C211.66 7.296 212.458 7.164 213.334 7.164C214.798 7.164 216.034 7.446 217.042 8.01C218.062 8.574 218.83 9.474 219.346 10.71C219.874 11.934 220.138 13.542 220.138 15.534V25.992H217.222V14.976C217.222 13.092 216.802 11.766 215.962 10.998C215.134 10.23 214.108 9.846 212.884 9.846C211.996 9.846 211.204 10.002 210.508 10.314C209.824 10.626 209.284 11.148 208.888 11.88C208.504 12.612 208.312 13.62 208.312 14.904V25.992H205.378ZM226.464 16.686V13.86H243.384V16.686H226.464ZM249.782 33.282V7.596H252.716V9.18C253.28 8.652 253.94 8.184 254.696 7.776C255.452 7.368 256.454 7.164 257.702 7.164C259.358 7.164 260.78 7.56 261.968 8.352C263.168 9.132 264.092 10.242 264.74 11.682C265.388 13.122 265.712 14.82 265.712 16.776C265.712 18.828 265.37 20.574 264.686 22.014C264.014 23.442 263.078 24.534 261.878 25.29C260.69 26.046 259.334 26.424 257.81 26.424C256.466 26.424 255.404 26.208 254.624 25.776C253.856 25.332 253.22 24.81 252.716 24.21V31.86L249.782 33.282ZM257.45 23.724C259.118 23.724 260.408 23.13 261.32 21.942C262.232 20.742 262.688 19.02 262.688 16.776C262.688 14.676 262.22 12.996 261.284 11.736C260.348 10.476 259.028 9.846 257.324 9.846C256.316 9.846 255.41 10.074 254.606 10.53C253.814 10.986 253.184 11.622 252.716 12.438V21.132C253.28 21.864 253.94 22.482 254.696 22.986C255.452 23.478 256.37 23.724 257.45 23.724ZM278.085 26.424C276.801 26.424 275.661 26.196 274.665 25.74C273.681 25.272 272.907 24.582 272.343 23.67C271.791 22.746 271.515 21.594 271.515 20.214C271.515 18.798 271.851 17.646 272.523 16.758C273.195 15.858 274.065 15.198 275.133 14.778C276.201 14.346 277.335 14.13 278.535 14.13C279.435 14.13 280.287 14.22 281.091 14.4C281.907 14.58 282.735 14.898 283.575 15.354V13.914C283.575 12.786 283.395 11.922 283.035 11.322C282.675 10.71 282.195 10.29 281.595 10.062C280.995 9.834 280.341 9.72 279.633 9.72C278.649 9.72 277.623 9.924 276.555 10.332C275.499 10.728 274.581 11.172 273.801 11.664L272.955 9.198C273.759 8.706 274.773 8.244 275.997 7.812C277.233 7.38 278.541 7.164 279.921 7.164C280.617 7.164 281.337 7.254 282.081 7.434C282.825 7.602 283.521 7.92 284.169 8.388C284.817 8.856 285.339 9.516 285.735 10.368C286.131 11.208 286.329 12.306 286.329 13.662V25.992H283.575V24.282C282.891 24.894 282.087 25.404 281.163 25.812C280.251 26.22 279.225 26.424 278.085 26.424ZM278.463 23.868C279.627 23.868 280.635 23.598 281.487 23.058C282.339 22.506 283.035 21.912 283.575 21.276V18C282.999 17.64 282.291 17.328 281.451 17.064C280.611 16.8 279.759 16.668 278.895 16.668C277.659 16.668 276.579 16.956 275.655 17.532C274.731 18.096 274.269 18.99 274.269 20.214C274.269 21.306 274.629 22.188 275.349 22.86C276.081 23.532 277.119 23.868 278.463 23.868ZM300.917 26.424C299.285 26.424 297.875 26.034 296.687 25.254C295.499 24.462 294.587 23.346 293.951 21.906C293.315 20.466 292.997 18.756 292.997 16.776C292.997 14.76 293.321 13.038 293.969 11.61C294.617 10.17 295.529 9.072 296.705 8.316C297.893 7.548 299.285 7.164 300.881 7.164C302.081 7.164 303.083 7.338 303.887 7.686C304.691 8.034 305.357 8.436 305.885 8.892V1.422L308.819 2.14577e-06V25.992H305.885V24.444C305.393 24.972 304.745 25.434 303.941 25.83C303.149 26.226 302.141 26.424 300.917 26.424ZM301.277 23.724C302.297 23.724 303.197 23.502 303.977 23.058C304.769 22.602 305.405 21.954 305.885 21.114V12.294C305.537 11.73 304.991 11.184 304.247 10.656C303.503 10.116 302.507 9.846 301.259 9.846C299.567 9.846 298.271 10.446 297.371 11.646C296.471 12.834 296.021 14.544 296.021 16.776C296.021 18.084 296.231 19.266 296.651 20.322C297.071 21.366 297.671 22.194 298.451 22.806C299.243 23.418 300.185 23.724 301.277 23.724Z" fill="black"/>
<path d="M2 30.888H246.761V33.912H2V30.888ZM255.739 30.888H312.563V33.912H255.739V30.888Z" fill="black"/>
</g>
<defs>
<filter id="filter0_d_105_4" x="0" y="0" width="314.563" height="37.912" filterUnits="userSpaceOnUse" color-interpolation-filters="sRGB">
<feFlood flood-opacity="0" result="BackgroundImageFix"/>
<feColorMatrix in="SourceAlpha" type="matrix" values="0 0 0 0 0 0 0 0 0 0 0 0 0 0 0 0 0 0 127 0" result="hardAlpha"/>
<feOffset dy="2"/>
<feGaussianBlur stdDeviation="1"/>
<feComposite in2="hardAlpha" operator="out"/>
<feColorMatrix type="matrix" values="0 0 0 0 0 0 0 0 0 0 0 0 0 0 0 0 0 0 0.25 0"/>
<feBlend mode="normal" in2="BackgroundImageFix" result="effect1_dropShadow_105_4"/>
<feBlend mode="normal" in="SourceGraphic" in2="effect1_dropShadow_105_4" result="shape"/>
</filter>
</defs>
</svg>
